<svg viewBox="0 -32 480 480" xmlns="http://www.w3.org/2000/svg"><path d="m466.878906 188c-1.144531-2.398438-2.398437-4.863281-3.71875-7.585938-3.160156-6.390624-7.152344-12.339843-11.863281-17.695312v-.039062c-15.121094-16.851563-36.65625-26.539063-59.296875-26.679688h-116.6875l-125.65625-125.65625c-1.5-1.5-3.535156-2.34375-5.65625-2.34375h-48c-2.910156 0-5.585938 1.578125-6.996094 4.121094-1.410156 2.542968-1.328125 5.652344.210938 8.117187l72.386718 115.761719h-67.960937l-38.105469-106.6875c-1.136718-3.1875-4.152344-5.3125-7.535156-5.3125h-40c-4.417969 0-8 3.582031-8 8v232c0 4.417969 3.582031 8 8 8h49.601562c-6.089843 6.519531-9.515624 15.082031-9.601562 24 0 22.054688 21.527344 40 48 40 4.683594-.007812 9.351562-.601562 13.886719-1.769531 4.445312 1.605469 9.214843 2.105469 13.898437 1.457031l-42.570312 68.074219c-1.539063 2.464843-1.621094 5.574219-.210938 8.117187 1.410156 2.542969 4.085938 4.121094 6.996094 4.121094h48c2.121094 0 4.15625-.84375 5.65625-2.34375l141.65625-141.65625h156.6875c22.082031-.027344 39.972656-17.917969 40-40v-8c0-2.535156-1.257812-11.078125-13.121094-36zm-25.503906-12c.464844.585938.929688 1.175781 1.378906 1.785156 1.054688 1.4375 2.0625 2.933594 3.023438 4.503906.34375.558594.664062 1.136719.992187 1.710938h-54.769531v-8zm-330.976562-152h30.257812l112 112h-72.222656zm3.371093 294.550781c-1.8125-.859375-3.878906-1.007812-5.792969-.414062-3.875 1.21875-7.914062 1.847656-11.976562 1.863281-17.648438 0-32-10.769531-32-24 0-11.496094 11.496094-21.601562 26.734375-23.558594 3.335937-.421875 6.054687-2.882812 6.800781-6.160156 3.519532-15.472656 12.761719-26.28125 22.464844-26.28125s18.894531 10.761719 22.441406 26.167969c.773438 3.359375 3.609375 5.84375 7.039063 6.167969 16.375 1.550781 26.519531 9.335937 26.519531 15.664062 0 4.59375-5.222656 9.601562-13.304688 12.6875-2.046874.796875-3.679687 2.394531-4.519531 4.425781-4.445312 11.402344-16.9375 17.449219-28.640625 13.863281-.703125-.203124-1.433594-.308593-2.167968-.304687-.90625 0-1.808594.152344-2.664063.457031-3.550781 1.355469-7.511719 1.144532-10.902344-.578125zm18.917969 81.449219h-30.246094l40.429688-64.65625c12.324218-2.109375 22.941406-9.894531 28.65625-21.015625 11.460937-3.914063 19.5-14.257813 20.472656-26.328125-.214844-6.890625-3.234375-13.390625-8.359375-18l28.800781-46h96.246094zm331.3125-168c0 13.253906-10.746094 24-24 24h-140.6875l34.34375-34.34375c2.285156-2.289062 2.972656-5.730469 1.734375-8.71875s-4.15625-4.9375-7.390625-4.9375h-120c-2.757812 0-5.320312 1.414062-6.785156 3.753906l-27.6875 44.246094h-17.40625c-6.488282-19.367188-20.402344-32-36.121094-32s-29.601562 12.632812-36.105469 32h-67.894531v-216h26.398438l38.105468 106.6875c1.132813 3.171875 4.128906 5.296875 7.496094 5.3125h304.296875c10.582031.183594 20.960937 2.925781 30.246094 8h-38.542969c-4.417969 0-8 3.582031-8 8v24c0 4.417969 3.582031 8 8 8h70.808594c3.929687 7.640625 7.011718 15.6875 9.191406 24zm0 0"/><path d="m360 160h-264c-4.417969 0-8 3.582031-8 8v24c0 4.417969 3.582031 8 8 8h264c4.417969 0 8-3.582031 8-8v-24c0-4.417969-3.582031-8-8-8zm-8 24h-248v-8h248zm0 0"/><path d="m40 208h-16v32c0 4.417969 3.582031 8 8 8h32v-16h-24zm0 0"/><path d="m340.558594 337.160156c-6.3125-20.046875-20.519532-33.160156-36.558594-33.160156s-30.398438 13.257812-36.671875 33.511719c-20.769531 4.65625-35.328125 20.175781-35.328125 38.488281 0 22.054688 21.527344 40 48 40 4.683594-.007812 9.351562-.601562 13.886719-1.769531 5.671875 2.066406 11.847656 2.328125 17.671875.753906 2.765625.660156 5.597656 1 8.441406 1.015625 14.976562.027344 28.699219-8.34375 35.527344-21.671875 11.460937-3.914063 19.5-14.257813 20.472656-26.328125 0-14.769531-14.601562-27.199219-35.441406-30.839844zm6.136718 43.527344c-2.046874.796875-3.679687 2.394531-4.519531 4.425781-4.445312 11.402344-16.9375 17.449219-28.640625 13.863281-.703125-.203124-1.433594-.308593-2.167968-.304687-.90625 0-1.808594.152344-2.664063.457031-3.550781 1.355469-7.511719 1.148438-10.902344-.578125-1.8125-.859375-3.878906-1.007812-5.792969-.414062-3.886718 1.222656-7.933593 1.851562-12.007812 1.863281-17.648438 0-32-10.769531-32-24 0-11.496094 11.496094-21.601562 26.734375-23.558594 3.335937-.421875 6.054687-2.882812 6.800781-6.160156 3.519532-15.472656 12.761719-26.28125 22.464844-26.28125s18.894531 10.761719 22.441406 26.167969c.773438 3.359375 3.609375 5.84375 7.039063 6.167969 16.375 1.550781 26.519531 9.335937 26.519531 15.664062 0 4.59375-5.222656 9.601562-13.304688 12.6875zm0 0"/><path d="m328 112c4.683594-.007812 9.351562-.601562 13.886719-1.769531 5.671875 2.070312 11.847656 2.332031 17.671875.753906 2.765625.660156 5.597656 1 8.441406 1.015625 14.976562.027344 28.699219-8.34375 35.527344-21.671875 11.460937-3.914063 19.5-14.257813 20.472656-26.328125 0-14.769531-14.601562-27.199219-35.441406-30.839844-6.3125-20.046875-20.519532-33.160156-36.558594-33.160156s-30.398438 13.257812-36.671875 33.511719c-20.769531 4.65625-35.328125 20.175781-35.328125 38.488281 0 22.054688 21.527344 40 48 40zm-5.265625-63.558594c3.335937-.421875 6.054687-2.882812 6.800781-6.160156 3.519532-15.472656 12.761719-26.28125 22.464844-26.28125s18.894531 10.761719 22.441406 26.167969c.773438 3.359375 3.609375 5.84375 7.039063 6.167969 16.375 1.550781 26.519531 9.335937 26.519531 15.664062 0 4.59375-5.222656 9.601562-13.304688 12.6875-2.046874.796875-3.679687 2.394531-4.519531 4.425781-4.445312 11.402344-16.9375 17.449219-28.640625 13.863281-.703125-.203124-1.433594-.308593-2.167968-.304687-.90625 0-1.808594.152344-2.664063.457031-3.550781 1.351563-7.511719 1.144532-10.902344-.578125-1.8125-.859375-3.878906-1.007812-5.792969-.414062-3.886718 1.222656-7.933593 1.851562-12.007812 1.863281-17.648438 0-32-10.769531-32-24 0-11.496094 11.496094-21.601562 26.734375-23.558594zm0 0"/></svg>